<svg width="247" height="124" viewBox="0 0 247 124" fill="none" xmlns="http://www.w3.org/2000/svg">
<rect x="0.5" y="0.5" width="246" height="123" stroke="black"/>
<path d="M89.1875 78H84.6641V62.2266H67.4609V78H62.9609V43.875H67.4609V58.5469H84.6641V43.875H89.1875V78ZM120.055 47.5781H109.086V78H104.609V47.5781H93.6641V43.875H120.055V47.5781ZM130.93 43.875L142.086 71.7188L153.242 43.875H159.078V78H154.578V64.7109L155 50.3672L143.797 78H140.352L129.172 50.4375L129.617 64.7109V78H125.117V43.875H130.93ZM171.547 74.3203H187.719V78H167.023V43.875H171.547V74.3203Z" fill="black"/>
</svg>
